<svg width="617" height="703" viewBox="0 0 617 703" fill="none" xmlns="http://www.w3.org/2000/svg">
<g clip-path="url(#clip0_2_17)">
<path fill-rule="evenodd" clip-rule="evenodd" d="M302.397 673.513C202.564 674.778 91.2866 653.475 37.4176 569.491C-14.7761 488.119 30.0506 386.867 59.4918 294.816C87.3239 207.796 114.438 113.898 196.21 73.0071C283.906 29.154 390.308 38.2668 475.522 86.7741C559.393 134.517 613.235 221.711 625.479 317.363C637.118 408.294 598.117 495.245 536.501 563.167C475.542 630.366 393.173 672.363 302.397 673.513Z" fill="#A5DEFF"/>
<rect x="-14.5" y="-7.5" width="676" height="1529" rx="4.5" stroke="#7B61FF" stroke-dasharray="10 5"/>
<g clip-path="url(#clip1_2_17)">
<ellipse cx="128.454" cy="173.105" rx="13.0738" ry="20.5445" transform="rotate(-5.63119 128.454 173.105)" fill="#0D070C"/>
<ellipse cx="13.0738" cy="20.5445" rx="13.0738" ry="20.5445" transform="matrix(-0.910908 0.412609 0.412609 0.910908 264.634 109.726)" fill="#0D070C"/>
<path fill-rule="evenodd" clip-rule="evenodd" d="M176.969 83.3393C152.094 90.3269 106.951 114.282 125.382 154.202C137.737 180.963 131.278 193.024 124.296 206.061C118.258 217.333 111.83 229.336 116.837 252.204C121.384 272.974 130.842 285.826 140.282 298.653C153.253 316.28 166.191 333.861 166.306 371.881C166.465 424.431 205.094 563.545 224.389 626.534L315.944 602.001L176.969 83.3393ZM177.211 84.2414C202.247 77.8551 253.32 76.0295 257.318 119.817C259.986 149.024 275.398 157.473 291.519 166.311C305.609 174.034 320.241 182.055 327.379 204.49C334.058 225.479 329.324 240.967 324.579 256.493C318.448 276.551 312.299 296.671 330.716 328.794C356.853 374.384 392.957 514.175 407.741 578.371L316.186 602.903L177.211 84.2414Z" fill="white"/>
<ellipse cx="31.5961" cy="44.505" rx="31.5961" ry="44.505" transform="matrix(-0.761754 0.647867 0.647867 0.761754 145.462 212.668)" fill="url(#paint0_radial_2_17)"/>
<ellipse cx="31.5961" cy="44.505" rx="31.5961" ry="44.505" transform="matrix(-0.952397 -0.30486 -0.30486 0.952397 341.67 197.039)" fill="url(#paint1_radial_2_17)"/>
<path d="M380.705 471.832C322.172 518.231 232.572 531.157 195.692 525.628L201.95 547.252C286.794 565.362 359.963 518.429 386.884 493.278L380.705 471.832Z" fill="#005BBB"/>
<path d="M386.884 492.551C317.714 551.319 238.684 552.043 201.697 546.943L206.96 563.794C292.154 580.914 366.647 542.002 393.063 516.541L386.884 492.551Z" fill="#FFD500"/>
<ellipse opacity="0.5" cx="258.679" cy="127.453" rx="5.86084" ry="9.20989" transform="rotate(9.05007 258.679 127.453)" fill="white"/>
<ellipse opacity="0.5" cx="125.643" cy="165.255" rx="5.86084" ry="9.20989" transform="rotate(9.05007 125.643 165.255)" fill="white"/>
<path d="M305.873 562.081C145.646 593.273 180 810.428 217.205 915.107C404.599 976.407 754.303 1038.82 653.971 798.076C553.64 557.331 421.765 529.272 368.369 545.335L305.873 562.081Z" fill="white"/>
<path d="M379.251 468.197C427.212 462.714 505.887 477.657 438.539 572.302C371.687 666.25 358.745 725.323 394.636 713.7C394.895 713.604 395.164 713.513 395.442 713.43C395.171 713.524 394.902 713.614 394.636 713.7C384.659 717.428 389.222 730.881 384.068 736.338C344.118 742.69 343.374 688.995 432.602 571.202C454.076 539.884 468.42 478.903 383.756 482.187L379.251 468.197Z" fill="#FFD500"/>
<path d="M372.839 447.945C421.727 436.778 475.059 432.389 420.722 533.571C366.942 633.716 423.99 626.224 460.256 609.581C460.599 609.403 460.972 609.23 461.376 609.061C461.005 609.235 460.631 609.409 460.256 609.581C451.326 614.194 462.142 621.522 457.743 627.437C417.315 638.493 352.042 635.124 414.377 533.205C431.516 499.821 464.059 446.05 376.706 459.474L372.839 447.945Z" fill="#005BBB"/>
<path d="M153.678 200.277C133.97 138.269 191.386 111.651 191.338 112.495C256.241 112.495 265.296 168.069 265.296 176.653C265.296 200.277 307.24 209.921 302.422 235.83C297.604 261.739 310.571 309.539 310.493 345.331C310.431 373.964 299.629 381.757 294.236 382.074C289.92 383.366 287.05 383.764 277.999 386.425C242.151 396.963 227.216 350.243 181.594 304.46C135.973 258.677 178.314 277.786 153.678 200.277Z" fill="#FF6B0A"/>
<path d="M271.836 363.423C242.295 368.632 215.805 307.056 206.253 275.617C222.946 266.955 259.936 251.178 274.356 257.369C292.381 265.107 308.763 356.913 271.836 363.423Z" fill="#1F0C02"/>
<path d="M275.524 353.734C295.053 345.795 276.827 303.273 265.273 283.005L226.035 293.519C234.395 316.899 255.995 361.674 275.524 353.734Z" fill="#724B3B"/>
<path d="M269.046 338.505C272.418 334.405 254.597 292.271 245.265 271.717L236.891 274.948C246.205 297.842 265.674 342.604 269.046 338.505Z" fill="#6B3B28"/>
<path d="M188.002 254.404C196.367 207.691 178.838 187.735 169.028 183.596C188.605 135.425 229.803 149.426 247.955 162.447C235.83 209.201 244.267 172.136 275.949 230.839C301.294 277.801 272.757 303.719 255.321 310.808C229.396 311.471 179.636 301.118 188.002 254.404Z" fill="#ED5E00"/>
<path d="M284.021 251.11C221.016 200.705 199.23 255.784 196.213 289.624C203.806 301.124 226.49 321.439 256.482 310.696C286.474 299.953 287.338 266.496 284.021 251.11Z" fill="#FF8E3D"/>
<path d="M230.359 257.013C228.42 251.804 223.962 242.401 221.635 246.472C219.309 250.544 226.482 255.196 230.359 257.013Z" fill="#FD7411"/>
<path d="M240.531 254.307C238.757 249.039 236.301 238.927 240.671 240.625C245.042 242.323 242.399 250.454 240.531 254.307Z" fill="#FD7411"/>
</g>
</g>
<defs>
<radialGradient id="paint0_radial_2_17" cx="0" cy="0" r="1" gradientUnits="userSpaceOnUse" gradientTransform="translate(31.5961 44.505) rotate(90) scale(44.505 31.5961)">
<stop stop-color="#FFBBBB"/>
<stop offset="1" stop-color="#FFBBBB" stop-opacity="0"/>
</radialGradient>
<radialGradient id="paint1_radial_2_17" cx="0" cy="0" r="1" gradientUnits="userSpaceOnUse" gradientTransform="translate(31.5961 44.505) rotate(90) scale(44.505 31.5961)">
<stop stop-color="#FFBBBB"/>
<stop offset="1" stop-color="#FFBBBB" stop-opacity="0"/>
</radialGradient>
<clipPath id="clip0_2_17">
<rect width="723" height="703" fill="white"/>
</clipPath>
<clipPath id="clip1_2_17">
<rect width="637" height="735" fill="white" transform="translate(5 12)"/>
</clipPath>
</defs>
</svg>
