<svg width="374" height="374" viewBox="0 0 374 374" fill="none" xmlns="http://www.w3.org/2000/svg">
<path fill-rule="evenodd" clip-rule="evenodd" d="M77.379 120.369C93.8943 86.6394 124.507 71.6017 161.841 67.768C198.015 64.0536 239.542 83.5295 265.449 109.033C289.939 133.142 316.861 158.177 316.713 192.567C316.554 229.448 295.44 263.622 264.697 283.998C234.438 304.053 196.03 307.333 161.841 295.213C129.34 283.691 97.8881 270.478 85.5411 238.267C73.3258 206.4 62.3619 151.038 77.379 120.369Z" fill="url(#paint0_linear_2_67)"/>
<line x1="1.5" y1="-1.5" x2="31.5621" y2="-1.5" transform="matrix(-0.0288564 0.999584 0.999584 0.0288564 195.223 284.008)" stroke="#FF6B0A" stroke-width="3" stroke-linecap="round"/>
<path d="M178.483 323.775L194.547 315.021" stroke="#FF6B0A" stroke-width="3" stroke-linecap="round"/>
<path d="M188.296 325.367L195.222 315.453" stroke="#FF6B0A" stroke-width="3" stroke-linecap="round"/>
<path d="M174.168 316.892L192.915 314.801" stroke="#FF6B0A" stroke-width="3" stroke-linecap="round"/>
<path d="M141.443 252.506C152.361 293.792 196.636 349.515 286.389 242.112C233.489 218.638 130.44 187.853 141.443 252.506Z" fill="url(#paint1_linear_2_67)"/>
<path d="M181.364 160.926C189.681 140.964 177.898 133.201 170.967 131.815C165.769 135.281 147.262 142.212 156.412 142.212C165.561 142.212 162.996 154.688 160.57 160.926C115.656 221.644 141.856 255.537 155.372 264.894C170.967 258.656 196.959 244.309 176.166 236.823C150.174 227.466 170.967 185.879 181.364 160.926Z" fill="url(#paint2_linear_2_67)"/>
<ellipse cx="10.0949" cy="29.2087" rx="10.0949" ry="29.2087" transform="matrix(-0.00903533 0.999959 0.999959 0.00903533 166.994 282.785)" fill="url(#paint3_radial_2_67)"/>
<path d="M210.574 295.361L210.574 319.805" stroke="#FF6B0A" stroke-width="3" stroke-linecap="round"/>
<path d="M193.933 328.651L209.997 319.897" stroke="#FF6B0A" stroke-width="3" stroke-linecap="round"/>
<path d="M203.745 330.244L210.672 320.329" stroke="#FF6B0A" stroke-width="3" stroke-linecap="round"/>
<path d="M189.618 321.769L208.365 319.677" stroke="#FF6B0A" stroke-width="3" stroke-linecap="round"/>
<path d="M211.107 183.891C147.274 204.51 160.484 225.321 175.068 233.15C179.274 239.973 192.494 230.816 198.578 225.385C198.69 222.111 200.798 214.371 208.337 209.601C215.876 204.832 213.703 202.845 211.674 202.447C222.235 193.59 216.439 194.178 212.221 195.579C246.026 177.256 223.007 179.795 211.107 183.891Z" fill="#D9D9D9"/>
<path d="M213.426 185.035C148.777 207.067 162.683 227.697 177.717 235.258C182.149 242.024 195.435 232.553 201.524 226.972C201.569 223.682 203.556 215.864 211.142 210.917C218.729 205.97 216.471 204.019 214.394 203.662C224.976 194.547 219.079 195.258 214.808 196.752C242.616 176.915 225.474 180.676 213.426 185.035Z" fill="#FAFAFA"/>
<path d="M145.245 157.198C164.785 167.973 173.856 161.687 175.948 157.198C190.216 148.714 186.906 119.76 162.48 119.76C138.054 119.76 120.819 143.729 145.245 157.198Z" fill="white"/>
<path d="M158.631 149.292L155.519 147.289C149.932 143.69 143.196 142.323 136.647 143.457C136.277 143.521 135.98 143.798 135.89 144.163L129.584 169.702C129.128 171.548 131.263 172.929 132.76 171.755L158.728 151.384C159.424 150.839 159.374 149.771 158.631 149.292Z" fill="#DF5B04"/>
<path d="M159.185 149.143L156.635 147.557C150.623 143.818 143.462 142.379 136.472 143.505C136.199 143.549 135.954 143.7 135.791 143.924L120.093 165.522C118.878 167.193 120.685 169.384 122.556 168.51L159.045 151.486C160.005 151.038 160.085 149.703 159.185 149.143Z" fill="#FF6B0A"/>
<circle cx="136.684" cy="136.881" r="2.51109" fill="#797979"/>
<circle cx="162.48" cy="139.392" r="2.51109" fill="#797979"/>
<ellipse cx="170.463" cy="150.669" rx="9.32012" ry="10.1731" transform="rotate(40.381 170.463 150.669)" fill="url(#paint4_radial_2_67)"/>
<ellipse cx="235.259" cy="173.966" rx="39.4631" ry="54.059" transform="rotate(-49.5284 235.259 173.966)" fill="#C4C4C4"/>
<ellipse cx="238.417" cy="170.265" rx="34.5978" ry="54.059" transform="rotate(-49.5284 238.417 170.265)" fill="white"/>
<path d="M225.282 171.566L258.258 144.536L239.338 181.296C229.391 182.594 225.823 175.35 225.282 171.566Z" fill="#C4C4C4"/>
<ellipse cx="258.637" cy="144.536" rx="9.1744" ry="12.5677" transform="rotate(-49.5284 258.637 144.536)" fill="#C4C4C4"/>
<ellipse cx="259.371" cy="143.676" rx="8.04331" ry="12.5677" transform="rotate(-49.5284 259.371 143.676)" fill="white"/>
<path d="M256.096 143.803L265.826 135.887L260.243 146.653C257.308 147.033 256.255 144.912 256.096 143.803Z" fill="#C4C4C4"/>
<path d="M238.136 194.702C174.303 215.321 187.513 236.133 202.097 243.961C206.303 250.784 219.523 241.628 225.608 236.197C225.719 232.923 227.827 225.183 235.366 220.413C242.906 215.644 240.732 213.656 238.703 213.259C249.264 204.402 243.468 204.99 239.251 206.39C273.056 188.068 250.037 190.607 238.136 194.702Z" fill="#D9D9D9"/>
<path d="M240.456 195.847C175.807 217.879 189.712 238.509 204.746 246.07C209.178 252.836 222.464 243.365 228.554 237.784C228.599 234.494 230.585 226.676 238.172 221.729C245.758 216.782 243.501 214.831 241.424 214.474C252.005 205.359 246.108 206.069 241.837 207.564C269.646 187.727 252.503 191.487 240.456 195.847Z" fill="#F8F8F8"/>
<defs>
<linearGradient id="paint0_linear_2_67" x1="75.7324" y1="122.76" x2="298.268" y2="251.24" gradientUnits="userSpaceOnUse">
<stop stop-color="#A5DEFF"/>
<stop offset="1" stop-color="#BDE7FF"/>
</linearGradient>
<linearGradient id="paint1_linear_2_67" x1="174.142" y1="257.077" x2="290.366" y2="239.521" gradientUnits="userSpaceOnUse">
<stop stop-color="#F2F2F2"/>
<stop offset="1" stop-color="white"/>
</linearGradient>
<linearGradient id="paint2_linear_2_67" x1="159.814" y1="131.815" x2="159.814" y2="264.894" gradientUnits="userSpaceOnUse">
<stop stop-color="white"/>
<stop offset="1" stop-color="#F2F2F2"/>
</linearGradient>
<radialGradient id="paint3_radial_2_67" cx="0" cy="0" r="1" gradientUnits="userSpaceOnUse" gradientTransform="translate(10.0949 29.2087) rotate(90) scale(29.2087 10.0949)">
<stop stop-color="#D7D7D7"/>
<stop offset="1" stop-color="#D7D7D7" stop-opacity="0"/>
</radialGradient>
<radialGradient id="paint4_radial_2_67" cx="0" cy="0" r="1" gradientUnits="userSpaceOnUse" gradientTransform="translate(170.463 150.669) rotate(90) scale(10.1731 9.32012)">
<stop stop-color="#FFBBBB"/>
<stop offset="1" stop-color="#FFBBBB" stop-opacity="0"/>
</radialGradient>
</defs>
</svg>
