<svg width="374" height="374" viewBox="0 0 374 374" fill="none" xmlns="http://www.w3.org/2000/svg">
<path fill-rule="evenodd" clip-rule="evenodd" d="M151.555 298.849C115.023 290.476 76.3132 272.859 64.0926 237.454C52.252 203.151 77.5643 170.18 96.4497 139.204C114.303 109.921 132.503 78.0659 165.952 70.384C201.824 62.1457 239.834 74.885 266.629 100.121C293.001 124.959 304.928 161.532 300.931 197.51C297.131 231.712 275.209 259.981 246.721 279.308C218.537 298.429 184.772 306.461 151.555 298.849Z" fill="url(#paint0_linear_2_113)"/>
<path d="M157.235 314.22C93.7344 314.22 123.128 233.41 188.261 236.929C237.996 270.48 215.735 314.22 157.235 314.22Z" fill="#F5F5F5"/>
<path d="M174.551 166.88C166.858 148.417 177.756 141.237 184.167 139.955C188.975 143.16 206.092 149.571 197.629 149.571C189.167 149.571 191.539 161.11 193.783 166.88C235.325 223.038 211.092 254.387 198.591 263.041C184.167 257.272 160.126 244.001 179.359 237.078C203.399 228.423 184.167 189.959 174.551 166.88Z" fill="url(#paint1_linear_2_113)"/>
<path d="M253.798 171.404C284.407 289.544 250.914 310.821 225.608 288.668C211.643 284.041 217.849 289.542 219.993 276.944C224.668 275.488 219.092 200.962 218.886 186.108C218.68 171.253 223.649 174.238 226.159 177.587C229.048 155.94 233.703 166.17 235.669 173.991C237.358 118.828 248.459 149.282 253.798 171.404Z" fill="#C4C4C4"/>
<path d="M252.558 172.164C283.166 290.305 249.673 311.581 224.368 289.429C210.403 284.802 216.608 290.302 218.752 277.704C223.427 276.248 217.851 201.723 217.645 186.868C217.439 172.014 222.408 174.998 224.918 178.347C227.807 156.7 232.462 166.931 234.429 174.752C236.117 119.588 247.218 150.042 252.558 172.164Z" fill="url(#paint2_linear_2_113)"/>
<path d="M227.288 176.764C200.017 191.801 187.358 183.03 184.438 176.764C164.527 164.925 169.146 124.516 203.235 124.516C237.323 124.516 261.377 157.968 227.288 176.764Z" fill="white"/>
<path d="M209.719 168.357L212.172 165.931C217.556 160.604 225.329 156.991 234.367 155.617C234.985 155.523 235.675 155.734 236.114 156.151L258.354 177.325C259.733 178.638 258.485 180.313 256.43 179.907L211.225 170.969C209.657 170.659 208.835 169.233 209.719 168.357Z" fill="#DF5B04"/>
<rect x="239.719" y="139.72" width="15" height="22" fill="#010101"/>
<circle cx="11" cy="11" r="11" transform="matrix(-1 0 0 1 250.719 139.72)" fill="#010101"/>
<circle cx="11" cy="11" r="11" transform="matrix(-1 0 0 1 265.719 139.72)" fill="#222222"/>
<circle cx="8" cy="8" r="8" transform="matrix(-1 0 0 1 262.719 142.72)" fill="#8DCCF0"/>
<ellipse opacity="0.29" cx="7" cy="7" rx="7" ry="7" transform="matrix(-1 8.74228e-08 8.74228e-08 1 261.719 143.72)" fill="white"/>
<ellipse cx="2.5" cy="3.79686" rx="2.5" ry="3.79686" transform="matrix(-0.707107 0.707107 0.707107 0.707107 256.254 143.72)" fill="white"/>
<path d="M209.105 168.27L210.81 166.638C216.709 160.993 225.052 157.134 234.719 155.581C235.147 155.513 235.62 155.575 236.041 155.756L268.705 169.795C270.852 170.718 270.393 173.037 268.079 172.958L211.094 171.015C209.265 170.952 208.051 169.278 209.105 168.27Z" fill="#FF6B0A"/>
<rect x="211.719" y="140.72" width="15" height="22" fill="#010101"/>
<circle cx="11" cy="11" r="11" transform="matrix(-1 0 0 1 222.719 140.72)" fill="#010101"/>
<circle cx="11" cy="11" r="11" transform="matrix(-1 0 0 1 237.719 140.72)" fill="#222222"/>
<circle cx="8" cy="8" r="8" transform="matrix(-1 0 0 1 234.719 143.72)" fill="#8DCCF0"/>
<ellipse opacity="0.29" cx="7" cy="7" rx="7" ry="7" transform="matrix(-1 8.74228e-08 8.74228e-08 1 233.719 144.72)" fill="white"/>
<ellipse cx="2.5" cy="3.79686" rx="2.5" ry="3.79686" transform="matrix(-0.707107 0.707107 0.707107 0.707107 228.254 144.72)" fill="white"/>
<ellipse cx="13.0071" cy="14.1974" rx="13.0071" ry="14.1974" transform="matrix(-0.761754 0.647867 0.647867 0.761754 192.803 148.41)" fill="url(#paint3_radial_2_113)"/>
<path d="M228.971 176.985C259.579 295.125 226.086 316.401 200.781 294.249C186.816 289.622 193.021 295.123 195.165 282.524C199.84 281.068 194.264 206.543 194.058 191.688C193.852 176.834 198.821 179.818 201.331 183.168C204.22 161.52 208.875 171.751 210.842 179.572C212.53 124.409 223.631 154.862 228.971 176.985Z" fill="#C4C4C4"/>
<path d="M227.167 177.849C257.776 295.989 224.282 317.265 198.977 295.113C185.012 290.486 191.217 295.986 193.361 283.388C198.036 281.932 192.46 207.407 192.254 192.552C192.048 177.698 197.017 180.682 199.528 184.031C202.417 162.384 207.072 172.615 209.038 180.436C210.726 125.272 221.828 155.726 227.167 177.849Z" fill="url(#paint4_linear_2_113)"/>
<rect x="88.7185" y="263.041" width="221" height="60" fill="url(#paint5_linear_2_113)"/>
<defs>
<linearGradient id="paint0_linear_2_113" x1="152.749" y1="299.78" x2="221.251" y2="73.1693" gradientUnits="userSpaceOnUse">
<stop stop-color="#A5DEFF"/>
<stop offset="1" stop-color="#BDE7FF"/>
</linearGradient>
<linearGradient id="paint1_linear_2_113" x1="194.482" y1="263.041" x2="194.482" y2="263.041" gradientUnits="userSpaceOnUse">
<stop stop-color="#F4F4F4"/>
<stop offset="1" stop-color="white"/>
</linearGradient>
<linearGradient id="paint2_linear_2_113" x1="228.699" y1="292.712" x2="186.159" y2="195.36" gradientUnits="userSpaceOnUse">
<stop stop-color="#F4F4F4"/>
<stop offset="1" stop-color="white"/>
</linearGradient>
<radialGradient id="paint3_radial_2_113" cx="0" cy="0" r="1" gradientUnits="userSpaceOnUse" gradientTransform="translate(13.0071 14.1974) rotate(90) scale(14.1974 13.0071)">
<stop stop-color="#FFBBBB"/>
<stop offset="1" stop-color="#FFBBBB" stop-opacity="0"/>
</radialGradient>
<linearGradient id="paint4_linear_2_113" x1="239.341" y1="237.137" x2="189.981" y2="237.267" gradientUnits="userSpaceOnUse">
<stop stop-color="#F4F4F4"/>
<stop offset="1" stop-color="white"/>
</linearGradient>
<linearGradient id="paint5_linear_2_113" x1="199.219" y1="263.041" x2="199.219" y2="323.041" gradientUnits="userSpaceOnUse">
<stop stop-color="#FAFAFA" stop-opacity="0"/>
<stop offset="1" stop-color="white"/>
</linearGradient>
</defs>
</svg>
