<svg width="374" height="374" viewBox="0 0 374 374" fill="none" xmlns="http://www.w3.org/2000/svg">
<path fill-rule="evenodd" clip-rule="evenodd" d="M300.389 230.287C290.073 265.816 270.521 302.968 234.938 313.01C200.462 322.739 169.4 295.929 139.941 275.565C112.092 256.315 81.7276 236.577 76.0486 203.178C69.9583 167.359 84.6625 130.621 111.048 105.641C137.018 81.0555 173.736 71.3698 208.966 77.3436C242.458 83.0226 269.078 106.225 286.514 135.394C303.763 164.251 309.77 197.981 300.389 230.287Z" fill="url(#paint0_linear_2_152)"/>
<path d="M307.065 207.233C151.633 189.156 160.683 236.143 184.637 261.896C187.338 277.196 224.033 272.514 242.042 268.26C245.298 262.709 256.937 251.133 277.447 249.242C297.957 247.352 295.144 242.099 291.173 239.709C321.908 233.309 308.98 229.453 298.674 228.325C387.813 225.132 336.275 210.17 307.065 207.233Z" fill="#D9D9D9"/>
<path d="M310.967 209.068C152.488 192.742 163.193 240.001 188.355 265.671C191.591 281.062 228.717 275.893 246.875 271.385C250.004 265.749 261.456 253.937 282.23 251.78C303.004 249.624 299.977 244.363 295.867 242.002C326.884 235.175 313.626 231.445 303.121 230.434C380.839 219.591 340.734 211.672 310.967 209.068Z" fill="url(#paint1_linear_2_152)"/>
<line x1="1.5" y1="-1.5" x2="29.5388" y2="-1.5" transform="matrix(-0.93696 0.349437 0.349437 0.93696 170.507 283.884)" stroke="#FF6B0A" stroke-width="3" stroke-linecap="round"/>
<path d="M130.125 298.757L141.626 292.08" stroke="#FF6B0A" stroke-width="3" stroke-linecap="round"/>
<path d="M132.839 292.06L141.612 291.498" stroke="#FF6B0A" stroke-width="3" stroke-linecap="round"/>
<path d="M134.26 303.099L142.634 292.242" stroke="#FF6B0A" stroke-width="3" stroke-linecap="round"/>
<path d="M75.7223 182.623C231.9 192.359 214.671 237.001 186.535 258.104C181.167 272.684 145.881 261.577 128.91 254.202C126.688 248.161 117.283 234.707 97.4327 229.214C77.582 223.721 81.2811 219.05 85.612 217.401C56.4961 205.658 69.9029 204.153 80.2458 204.868C-6.91845 185.939 46.4543 180.341 75.7223 182.623Z" fill="#D9D9D9"/>
<path d="M71.1873 185.793C230.052 197.792 211.148 242.407 181.837 263.215C175.927 277.79 140.303 266.128 123.23 258.476C121.149 252.374 111.97 238.721 91.9062 232.92C71.8423 227.118 75.753 222.477 80.2163 220.881C50.899 208.668 64.6072 207.345 75.1259 208.21C0.556379 183.775 41.4295 183.084 71.1873 185.793Z" fill="url(#paint2_linear_2_152)"/>
<path d="M238.278 241.027C231.559 272.359 186.361 319.826 59.3242 259.046C120.253 233.042 241.344 193.033 238.278 241.027Z" fill="url(#paint3_linear_2_152)"/>
<path d="M187.249 159.004C181.204 144.494 189.768 138.852 194.806 137.844C198.585 140.363 212.036 145.401 205.386 145.401C198.736 145.401 200.6 154.47 202.363 159.004C235.01 203.137 215.966 227.773 206.142 234.575C194.806 230.041 175.914 219.612 191.028 214.171C209.92 207.369 194.806 177.141 187.249 159.004Z" fill="white"/>
<ellipse cx="180.499" cy="270.751" rx="10.8225" ry="41.9399" transform="rotate(74.2873 180.499 270.751)" fill="url(#paint4_radial_2_152)"/>
<line x1="1.5" y1="-1.5" x2="29.5389" y2="-1.5" transform="matrix(-0.978284 0.20727 0.20727 0.978284 154.914 282.157)" stroke="#FF6B0A" stroke-width="3" stroke-linecap="round"/>
<path d="M113.038 292.214L125.236 286.92" stroke="#FF6B0A" stroke-width="3" stroke-linecap="round"/>
<path d="M116.512 285.878L125.291 286.34" stroke="#FF6B0A" stroke-width="3" stroke-linecap="round"/>
<path d="M116.64 297.008L126.219 287.198" stroke="#FF6B0A" stroke-width="3" stroke-linecap="round"/>
<path d="M228.694 166.772C207.263 178.589 197.315 171.696 195.02 166.772C179.372 157.468 183.002 125.711 209.792 125.711C236.581 125.711 255.484 152 228.694 166.772Z" fill="white"/>
<path d="M214.013 158.101L217.425 155.904C223.554 151.957 230.941 150.457 238.124 151.701C238.53 151.772 238.856 152.075 238.954 152.475L246.005 181.031C246.461 182.877 244.326 184.258 242.829 183.084L213.906 160.396C213.143 159.797 213.198 158.626 214.013 158.101Z" fill="#DF5B04"/>
<path d="M213.404 157.938L216.201 156.198C222.795 152.097 230.649 150.519 238.315 151.754C238.615 151.803 238.884 151.968 239.062 152.213L256.72 176.507C257.934 178.178 256.128 180.369 254.256 179.496L213.558 160.507C212.505 160.015 212.417 158.551 213.404 157.938Z" fill="#FF6B0A"/>
<circle cx="2.75405" cy="2.75405" r="2.75405" transform="matrix(-1 0 0 1 240.837 141.735)" fill="#797979"/>
<circle cx="2.75405" cy="2.75405" r="2.75405" transform="matrix(-1 0 0 1 212.545 144.489)" fill="#797979"/>
<ellipse cx="10.2219" cy="11.1574" rx="10.2219" ry="11.1574" transform="matrix(-0.761754 0.647867 0.647867 0.761754 201.593 144.489)" fill="url(#paint5_radial_2_152)"/>
<defs>
<linearGradient id="paint0_linear_2_152" x1="301.374" y1="229.162" x2="81.9208" y2="148.838" gradientUnits="userSpaceOnUse">
<stop stop-color="#A5DEFF"/>
<stop offset="1" stop-color="#BDE7FF"/>
</linearGradient>
<linearGradient id="paint1_linear_2_152" x1="252.067" y1="203.949" x2="259.673" y2="271.347" gradientUnits="userSpaceOnUse">
<stop stop-color="white"/>
<stop offset="1" stop-color="#F5F5F5"/>
</linearGradient>
<linearGradient id="paint2_linear_2_152" x1="130.063" y1="191.186" x2="110.641" y2="256.172" gradientUnits="userSpaceOnUse">
<stop stop-color="white"/>
<stop offset="1" stop-color="#F9F9F9"/>
</linearGradient>
<linearGradient id="paint3_linear_2_152" x1="186.299" y1="225.293" x2="111.066" y2="276.421" gradientUnits="userSpaceOnUse">
<stop stop-color="white"/>
<stop offset="1" stop-color="#F5F5F5"/>
</linearGradient>
<radialGradient id="paint4_radial_2_152" cx="0" cy="0" r="1" gradientUnits="userSpaceOnUse" gradientTransform="translate(180.499 270.751) rotate(90) scale(41.9399 10.8225)">
<stop stop-color="#E8E8E8"/>
<stop offset="1" stop-color="#EFEFEF" stop-opacity="0.5"/>
</radialGradient>
<radialGradient id="paint5_radial_2_152" cx="0" cy="0" r="1" gradientUnits="userSpaceOnUse" gradientTransform="translate(10.2219 11.1574) rotate(90) scale(11.1574 10.2219)">
<stop stop-color="#FFBBBB"/>
<stop offset="1" stop-color="#FFBBBB" stop-opacity="0"/>
</radialGradient>
</defs>
</svg>
