<?xml version="1.0" encoding="UTF-8"?>
<svg version="1.1" xmlns="http://www.w3.org/2000/svg" width="105" height="69">
<path d="M0 0 C34.65 0 69.3 0 105 0 C105 22.77 105 45.54 105 69 C70.35 69 35.7 69 0 69 C0 46.23 0 23.46 0 0 Z " fill="#325F52" transform="translate(0,0)"/>
<path d="M0 0 C34.65 0 69.3 0 105 0 C105 16.17 105 32.34 105 49 C104.67 48.01 104.34 47.02 104 46 C102.515 45.505 102.515 45.505 101 45 C100 44 100 44 99.9375 40.9375 C99.958125 39.968125 99.97875 38.99875 100 38 C99.10704224 37.84349976 99.10704224 37.84349976 98.19604492 37.68383789 C95.65998859 36.89412207 94.67097723 35.97688898 92.86328125 34.05859375 C92.28513672 33.47529297 91.70699219 32.89199219 91.11132812 32.29101562 C89.91957337 31.06302945 88.73961998 29.82347035 87.57226562 28.57226562 C84.133173 25.14833989 82.00689792 23.59862824 77.04296875 23.59765625 C75.69249968 23.69962381 74.34262786 23.82247668 73 24 C73 23.01 73 22.02 73 21 C73.66 21 74.32 21 75 21 C75 20.34 75 19.68 75 19 C76.53125 17.7109375 76.53125 17.7109375 78.5 16.375 C79.47453125 15.70597656 79.47453125 15.70597656 80.46875 15.0234375 C81.22671875 14.51683594 81.22671875 14.51683594 82 14 C76.31432923 15.34753944 71.03275434 16.94225877 65.72167969 19.40893555 C57.61750823 23.09995494 51.17830732 23.35561003 42.38671875 22.33203125 C39.13638294 21.70999592 39.13638294 21.70999592 37 23 C35.12506398 23.02596065 33.25004213 23.0458857 31.375 23.0625 C26.55542375 23.42439905 24.16321331 24.11182786 20.8125 27.625 C20.19890625 28.35074219 19.5853125 29.07648437 18.953125 29.82421875 C16.85109907 32.16587564 14.6683078 33.68800325 12.0625 35.4375 C9.47068148 37.36132405 8.21181318 38.34568603 7.2109375 41.4375 C6.9670765 43.66708632 6.87317871 45.76287249 7 48 C5.68 48 4.36 48 3 48 C3 48.66 3 49.32 3 50 C2.01 50 1.02 50 0 50 C0 33.5 0 17 0 0 Z " fill="#023424" transform="translate(0,0)"/>
<path d="M0 0 C-5.75 5 -5.75 5 -8 5 C-8 5.66 -8 6.32 -8 7 C-8.66 7.66 -9.32 8.32 -10 9 C-9.443125 8.9071875 -8.88625 8.814375 -8.3125 8.71875 C-4.5677039 8.36451253 -2.0178979 8.25505796 1.09765625 10.53515625 C2.43405574 11.91406546 3.73682818 13.32619697 5.0078125 14.765625 C7.57470248 17.64456827 10.46242228 20.00915808 13.43359375 22.45703125 C15 24 15 24 16 27 C13.35541621 28.32229189 11.32238699 28.09677194 8.375 28.0625 C7.37210937 28.05347656 6.36921875 28.04445313 5.3359375 28.03515625 C4.56507812 28.02355469 3.79421875 28.01195313 3 28 C3 27.34 3 26.68 3 26 C2.05125 25.690625 1.1025 25.38125 0.125 25.0625 C-3 24 -3 24 -5 23 C-6.95449844 22.8518456 -8.9151053 22.77875151 -10.875 22.75 C-11.92429688 22.72421875 -12.97359375 22.6984375 -14.0546875 22.671875 C-17.35810987 23.03989553 -18.4895798 23.93515222 -21 26 C-21.99 26 -22.98 26 -24 26 C-24 26.66 -24 27.32 -24 28 C-25.60332791 28.08121924 -27.20784026 28.13929134 -28.8125 28.1875 C-30.15248047 28.23970703 -30.15248047 28.23970703 -31.51953125 28.29296875 C-34.475003 27.94389728 -35.11459473 27.20609004 -37 25 C-42.41294968 22.56417265 -48.1541306 22.39527231 -54 22 C-54 22.66 -54 23.32 -54 24 C-60.80874678 26.64784597 -66.81028968 28.39657011 -74 26 C-70.83312889 19.07141226 -64.30600402 13.16027846 -58 9 C-53.82456254 7.77329166 -50.30342986 7.74006128 -46 8 C-45.34 7.67 -44.68 7.34 -44 7 C-39.79053297 6.8522994 -36.03443061 6.98873667 -31.90234375 7.75 C-26.03523908 8.42518508 -21.45669858 6.37666366 -16.125 4.125 C-15.18914062 3.74730469 -14.25328125 3.36960937 -13.2890625 2.98046875 C-11.56414609 2.28405853 -9.84249963 1.57944812 -8.12548828 0.86376953 C-3.29627329 -1.09875776 -3.29627329 -1.09875776 0 0 Z " fill="#F2DD95" transform="translate(83,14)"/>
<path d="M0 0 C3.74491336 0.00540569 7.48970919 0.00000089 11.23461914 -0.00634766 C13.63761419 -0.00568756 16.04060918 -0.00440781 18.44360352 -0.00244141 C20.10625999 -0.00547775 20.10625999 -0.00547775 21.80250549 -0.00857544 C27.51685351 0.00865046 33.00708087 0.27181698 38.65844727 1.13037109 C38.65844727 5.75037109 38.65844727 10.37037109 38.65844727 15.13037109 C29.6792362 15.15292408 20.70004382 15.17128732 11.72081089 15.18218327 C7.55181899 15.18741161 3.3828474 15.19450836 -0.78613281 15.20581055 C-4.80612959 15.21664118 -8.82610678 15.2226483 -12.84611702 15.22524834 C-14.38318249 15.22710227 -15.92024683 15.23072228 -17.457304 15.23610115 C-19.6029076 15.24331393 -21.74842928 15.24436194 -23.89404297 15.24389648 C-25.11759995 15.2461171 -26.34115692 15.24833771 -27.60179138 15.25062561 C-30.34155273 15.13037109 -30.34155273 15.13037109 -31.34155273 14.13037109 C-31.44013876 12.67477739 -31.47127416 11.2142919 -31.46655273 9.75537109 C-31.46913086 8.96388672 -31.47170898 8.17240234 -31.47436523 7.35693359 C-31.34155273 5.13037109 -31.34155273 5.13037109 -30.34155273 2.13037109 C-33.97155273 2.13037109 -37.60155273 2.13037109 -41.34155273 2.13037109 C-41.34155273 1.80037109 -41.34155273 1.47037109 -41.34155273 1.13037109 C-27.56397911 0.04943913 -13.8146391 -0.02378207 0 0 Z " fill="#151F02" transform="translate(49.341552734375,41.86962890625)"/>
<path d="M0 0 C1.00023193 0.00523682 2.00046387 0.01047363 3.03100586 0.01586914 C4.00303955 0.0183667 4.97507324 0.02086426 5.9765625 0.0234375 C7.84235962 0.03709351 7.84235962 0.03709351 9.74584961 0.05102539 C13.68522461 0.07165039 17.62459961 0.09227539 21.68334961 0.11352539 C21.68334961 15.29352539 21.68334961 30.47352539 21.68334961 46.11352539 C21.35334961 45.12352539 21.02334961 44.13352539 20.68334961 43.11352539 C19.19834961 42.61852539 19.19834961 42.61852539 17.68334961 42.11352539 C16.68334961 41.11352539 16.68334961 41.11352539 16.62084961 38.05102539 C16.64147461 37.08165039 16.66209961 36.11227539 16.68334961 35.11352539 C16.08804443 35.00919189 15.49273926 34.9048584 14.87939453 34.79736328 C12.3433382 34.00764746 11.35432684 33.09041437 9.54663086 31.17211914 C8.96848633 30.58881836 8.3903418 30.00551758 7.79467773 29.40454102 C6.60292298 28.17655484 5.42296959 26.93699574 4.25561523 25.68579102 C0.81652261 22.26186528 -1.30975247 20.71215363 -6.27368164 20.71118164 C-7.62415071 20.8131492 -8.97402253 20.93600207 -10.31665039 21.11352539 C-10.31665039 20.12352539 -10.31665039 19.13352539 -10.31665039 18.11352539 C-9.65665039 18.11352539 -8.99665039 18.11352539 -8.31665039 18.11352539 C-8.31665039 17.45352539 -8.31665039 16.79352539 -8.31665039 16.11352539 C-6.78540039 14.82446289 -6.78540039 14.82446289 -4.81665039 13.48852539 C-4.16696289 13.04250977 -3.51727539 12.59649414 -2.84790039 12.13696289 C-2.34258789 11.79922852 -1.83727539 11.46149414 -1.31665039 11.11352539 C-1.64665039 9.79352539 -1.97665039 8.47352539 -2.31665039 7.11352539 C-5.28665039 6.61852539 -5.28665039 6.61852539 -8.31665039 6.11352539 C-7.32665039 5.78352539 -6.33665039 5.45352539 -5.31665039 5.11352539 C-4.16656729 3.14679624 -4.16656729 3.14679624 -3.31665039 1.11352539 C-2.31665039 0.11352539 -2.31665039 0.11352539 0 0 Z " fill="#013929" transform="translate(83.316650390625,2.886474609375)"/>
<path d="M0 0 C2.01011479 2.0578799 3.78382026 4.22581794 5.59765625 6.45703125 C7.6998009 8.33381417 9.85666052 10.12247312 12.03125 11.9140625 C13.59765625 13.45703125 13.59765625 13.45703125 14.59765625 16.45703125 C11.95307246 17.77932314 9.92004324 17.55380319 6.97265625 17.51953125 C5.96976563 17.51050781 4.966875 17.50148438 3.93359375 17.4921875 C3.16273437 17.48058594 2.391875 17.46898438 1.59765625 17.45703125 C1.59765625 16.79703125 1.59765625 16.13703125 1.59765625 15.45703125 C0.64890625 15.14765625 -0.29984375 14.83828125 -1.27734375 14.51953125 C-4.40234375 13.45703125 -4.40234375 13.45703125 -6.40234375 12.45703125 C-13.84189271 11.86186733 -19.59028528 12.48449664 -26.40234375 15.45703125 C-27.39234375 15.45703125 -28.38234375 15.45703125 -29.40234375 15.45703125 C-29.42920928 13.47793727 -29.4486775 11.49874154 -29.46484375 9.51953125 C-29.47644531 8.41738281 -29.48804688 7.31523437 -29.5 6.1796875 C-29.40234375 3.45703125 -29.40234375 3.45703125 -28.40234375 2.45703125 C-26.7361726 2.41639293 -25.0684628 2.41431025 -23.40234375 2.45703125 C-23.40234375 1.79703125 -23.40234375 1.13703125 -23.40234375 0.45703125 C-16.4487192 -2.19196858 -6.55195328 -4.20816511 0 0 Z " fill="#F4DD91" transform="translate(84.40234375,24.54296875)"/>
<path d="M0 0 C7.69479711 -0.51778074 13.21882953 0.2494267 20 4 C20 4.66 20 5.32 20 6 C23.3 6 26.6 6 30 6 C30 5.34 30 4.68 30 4 C36.10374236 -0.43908535 41.55041465 -1.0234569 49 0 C51.98810652 1.06162437 54.27914107 2.32562527 57 4 C57 4.66 57 5.32 57 6 C61.29 5.67 65.58 5.34 70 5 C69.505 3.515 69.505 3.515 69 2 C69.66 2 70.32 2 71 2 C70.67 8.27 70.34 14.54 70 21 C67.03 21 64.06 21 61 21 C57.66666667 17.66666667 59.36155076 11.70015992 59 7 C32.6 7 6.2 7 -21 7 C-21 5.35 -21 3.7 -21 2 C-20.67 2.66 -20.34 3.32 -20 4 C-12.96517526 4.23668569 -6.8165735 3.7879537 0 2 C0 1.34 0 0.68 0 0 Z " fill="#917416" transform="translate(29,36)"/>
<path d="M0 0 C1.9375 0.8125 1.9375 0.8125 4 2 C5.180933 5.542799 5.27028374 8.28359861 5 12 C4.01 12.66 3.02 13.32 2 14 C0.80767387 16.05003955 0.80767387 16.05003955 0 18 C-0.67506592 17.67402832 -1.35013184 17.34805664 -2.0456543 17.01220703 C-5.60818418 15.79162618 -8.50562498 15.77370885 -12.26953125 15.8046875 C-13.29103523 15.80893234 -13.29103523 15.80893234 -14.33317566 15.81326294 C-16.49313455 15.82439475 -18.65266794 15.84948543 -20.8125 15.875 C-22.28319711 15.88503889 -23.75390076 15.89416315 -25.22460938 15.90234375 C-28.81654286 15.92431087 -32.40822985 15.9587918 -36 16 C-36 15.34 -36 14.68 -36 14 C-41.28 14 -46.56 14 -52 14 C-52 14.66 -52 15.32 -52 16 C-52.98742187 16.03738281 -53.97484375 16.07476562 -54.9921875 16.11328125 C-56.91417969 16.21189453 -56.91417969 16.21189453 -58.875 16.3125 C-60.15117188 16.37050781 -61.42734375 16.42851563 -62.7421875 16.48828125 C-63.81726562 16.65714844 -64.89234375 16.82601562 -66 17 C-66.66 17.99 -67.32 18.98 -68 20 C-68.66 20 -69.32 20 -70 20 C-70 17.69 -70 15.38 -70 13 C-50.86 13 -31.72 13 -12 13 C-12 9.37 -12 5.74 -12 2 C-11.67 2 -11.34 2 -11 2 C-10.505 6.95 -10.505 6.95 -10 12 C-7.03 12.33 -4.06 12.66 -1 13 C-1.01160156 12.22914062 -1.02320312 11.45828125 -1.03515625 10.6640625 C-1.04417969 9.66117188 -1.05320312 8.65828125 -1.0625 7.625 C-1.07410156 6.62726562 -1.08570312 5.62953125 -1.09765625 4.6015625 C-1 2 -1 2 0 0 Z " fill="#365E45" transform="translate(100,44)"/>
<path d="M0 0 C5.04185332 0.58175231 10.16637298 0.32831021 15.234375 0.2578125 C15.234375 0.9178125 15.234375 1.5778125 15.234375 2.2578125 C8.484375 2.3828125 8.484375 2.3828125 6.234375 1.2578125 C5.904375 1.9178125 5.574375 2.5778125 5.234375 3.2578125 C5.234375 2.5978125 5.234375 1.9378125 5.234375 1.2578125 C4.574375 1.2578125 3.914375 1.2578125 3.234375 1.2578125 C3.234375 1.9178125 3.234375 2.5778125 3.234375 3.2578125 C1.914375 3.2578125 0.594375 3.2578125 -0.765625 3.2578125 C-0.765625 3.9178125 -0.765625 4.5778125 -0.765625 5.2578125 C-0.105625 5.5878125 0.554375 5.9178125 1.234375 6.2578125 C0.234375 7.2578125 0.234375 7.2578125 -2.72485352 7.37133789 C-4.01834717 7.36610107 -5.31184082 7.36086426 -6.64453125 7.35546875 C-7.67452492 7.35334633 -7.67452492 7.35334633 -8.72532654 7.35118103 C-10.92630301 7.34556729 -13.12717909 7.33301257 -15.328125 7.3203125 C-16.81705583 7.31529926 -18.30598824 7.31073605 -19.79492188 7.30664062 C-23.45185575 7.29559343 -27.10873058 7.27831963 -30.765625 7.2578125 C-30.765625 6.2678125 -30.765625 5.2778125 -30.765625 4.2578125 C-28.785625 3.9278125 -26.805625 3.5978125 -24.765625 3.2578125 C-24.765625 2.2678125 -24.765625 1.2778125 -24.765625 0.2578125 C-6.5395752 -1.02017373 -6.5395752 -1.02017373 0 0 Z " fill="#1F2401" transform="translate(68.765625,46.7421875)"/>
<path d="M0 0 C4.29 0.33 8.58 0.66 13 1 C13 5.62 13 10.24 13 15 C-9.77 15 -32.54 15 -56 15 C-56 14.67 -56 14.34 -56 14 C-51.14778433 13.85475415 -46.29549261 13.71249325 -41.44311523 13.57275391 C-39.79953774 13.52503042 -38.15598191 13.47655367 -36.51245117 13.42724609 C-6.60988709 12.53190504 -6.60988709 12.53190504 6 14 C5.34 12.02 4.68 10.04 4 8 C3.01 8 2.02 8 1 8 C1.33 7.34 1.66 6.68 2 6 C4.31 6.33 6.62 6.66 9 7 C9 6.34 9 5.68 9 5 C7.55367187 5.14308594 7.55367187 5.14308594 6.078125 5.2890625 C4.81484375 5.39992188 3.5515625 5.51078125 2.25 5.625 C0.37054688 5.79902344 0.37054688 5.79902344 -1.546875 5.9765625 C-4.83586903 5.99888599 -6.31020776 5.77961002 -9 4 C-7.68 4 -6.36 4 -5 4 C-4.67 3.34 -4.34 2.68 -4 2 C-4 2.66 -4 3.32 -4 4 C-1.36 4 1.28 4 4 4 C4 3.01 4 2.02 4 1 C2.68 0.67 1.36 0.34 0 0 Z " fill="#132B15" transform="translate(75,42)"/>
<path d="M0 0 C0 4.29 0 8.58 0 13 C-4.96916636 12.48594831 -9.29026351 11.76615118 -14 10 C-14 9.34 -14 8.68 -14 8 C-16.31 8 -18.62 8 -21 8 C-21.33 6.68 -21.66 5.36 -22 4 C-19.69 3.34 -17.38 2.68 -15 2 C-15 1.67 -15 1.34 -15 1 C-9.91913204 0.15318867 -5.15171623 -0.09038099 0 0 Z " fill="#F3DD9A" transform="translate(54,27)"/>
<path d="M0 0 C-5.75 5 -5.75 5 -8 5 C-8 5.66 -8 6.32 -8 7 C-12.74354436 9.22656164 -16.72250715 10.46148032 -22 11 C-22 11.66 -22 12.32 -22 13 C-23.65 13.33 -25.3 13.66 -27 14 C-27.33 17.96 -27.66 21.92 -28 26 C-25.36 25.34 -22.72 24.68 -20 24 C-20.33 24.66 -20.66 25.32 -21 26 C-21.99 26 -22.98 26 -24 26 C-24 26.66 -24 27.32 -24 28 C-27.3 28 -30.6 28 -34 28 C-34.33 27.01 -34.66 26.02 -35 25 C-33.02 25.33 -31.04 25.66 -29 26 C-29 21.71 -29 17.42 -29 13 C-29.99 12.67 -30.98 12.34 -32 12 C-32 11.01 -32 10.02 -32 9 C-30.87078125 8.67128906 -30.87078125 8.67128906 -29.71875 8.3359375 C-22.4263493 6.15883729 -15.34629089 3.7051906 -8.29492188 0.84326172 C-3.32425407 -1.10808469 -3.32425407 -1.10808469 0 0 Z " fill="#C8B42C" transform="translate(83,14)"/>
<path d="M0 0 C9.22587327 -1.22107146 9.22587327 -1.22107146 13.23046875 1.53515625 C14.55434184 2.90659365 15.83676195 4.31907798 17.078125 5.765625 C19.58980571 8.68570907 22.46822398 11.01393796 25.43359375 13.45703125 C27 15 27 15 28 18 C25.35541621 19.32229189 23.32238699 19.09677194 20.375 19.0625 C19.37210938 19.05347656 18.36921875 19.04445313 17.3359375 19.03515625 C16.56507812 19.02355469 15.79421875 19.01195313 15 19 C15 18.34 15 17.68 15 17 C13.02 16.34 11.04 15.68 9 15 C12.05263664 14.01879536 13.94736336 14.01879536 17 15 C17 15.66 17 16.32 17 17 C18.32 17 19.64 17 21 17 C21.33 16.34 21.66 15.68 22 15 C21.01 15 20.02 15 19 15 C19 14.34 19 13.68 19 13 C18.01 12.67 17.02 12.34 16 12 C16 10.68 16 9.36 16 8 C15.28972656 7.95101563 14.57945313 7.90203125 13.84765625 7.8515625 C12.92855469 7.77679687 12.00945312 7.70203125 11.0625 7.625 C9.68771484 7.52058594 9.68771484 7.52058594 8.28515625 7.4140625 C7.15400391 7.20910156 7.15400391 7.20910156 6 7 C5.67 6.34 5.34 5.68 5 5 C4.01 4.34 3.02 3.68 2 3 C1.34 2.01 0.68 1.02 0 0 Z " fill="#E7DC8D" transform="translate(71,23)"/>
<path d="M0 0 C4.62 0.66 9.24 1.32 14 2 C14.33 2.99 14.66 3.98 15 5 C15.66 5 16.32 5 17 5 C17 6.32 17 7.64 17 9 C18.051875 8.938125 18.051875 8.938125 19.125 8.875 C22.38733531 9.01684067 24.92862782 9.93169663 28 11 C28.99 11 29.98 11 31 11 C32.53266582 14.06533164 32.10276471 17.26754272 32.0625 20.625 C32.05798828 21.33140625 32.05347656 22.0378125 32.04882812 22.765625 C32.03703875 24.51045275 32.01910324 26.255237 32 28 C31.505 26.515 31.505 26.515 31 25 C30.01 24.67 29.02 24.34 28 24 C27 23 27 23 26.9375 19.9375 C26.958125 18.968125 26.97875 17.99875 27 17 C26.40469482 16.8956665 25.80938965 16.79133301 25.19604492 16.68383789 C22.65998859 15.89412207 21.67097723 14.97688898 19.86328125 13.05859375 C19.28513672 12.47529297 18.70699219 11.89199219 18.11132812 11.29101562 C16.91957337 10.06302945 15.73961998 8.82347035 14.57226562 7.57226562 C11.133173 4.14833989 9.00689792 2.59862824 4.04296875 2.59765625 C2.69249968 2.69962381 1.34262786 2.82247668 0 3 C0 2.01 0 1.02 0 0 Z " fill="#08463F" transform="translate(73,21)"/>
<path d="M0 0 C3.63 0 7.26 0 11 0 C10.67 4.29 10.34 8.58 10 13 C6.7 13 3.4 13 0 13 C0 8.71 0 4.42 0 0 Z " fill="#B8A741" transform="translate(8,44)"/>
<path d="M0 0 C1.91635217 -0.05423638 3.83314925 -0.09289963 5.75 -0.125 C7.35101563 -0.15980469 7.35101563 -0.15980469 8.984375 -0.1953125 C11.92470106 -0.00487687 13.52361878 0.47329896 16 2 C16 1.34 16 0.68 16 0 C19.96 0 23.92 0 28 0 C25.10582818 2.89417182 22.0717692 3.95210638 17.95117188 4.04736328 C15.70984924 3.9387022 13.48452605 3.76755513 11.25 3.5625 C5.98311293 2.82218753 5.98311293 2.82218753 1 4 C-0.87493602 4.02596065 -2.74995787 4.0458857 -4.625 4.0625 C-10.75934376 4.51689583 -13.24031719 6.28653662 -17.18359375 10.85546875 C-17.78300781 11.56316406 -18.38242187 12.27085938 -19 13 C-20.26533317 14.19517608 -21.55558196 15.36481282 -22.875 16.5 C-23.70644531 17.22703125 -23.70644531 17.22703125 -24.5546875 17.96875 C-26 19 -26 19 -28 19 C-27.505 17.515 -27.505 17.515 -27 16 C-26.34 16 -25.68 16 -25 16 C-24.67 14.68 -24.34 13.36 -24 12 C-22.68 12 -21.36 12 -20 12 C-19.773125 11.484375 -19.54625 10.96875 -19.3125 10.4375 C-17.5024447 7.07596873 -15.26003596 4.07088856 -13 1 C-12.34 1.33 -11.68 1.66 -11 2 C-9.12620395 2.07033769 -7.24998898 2.0843022 -5.375 2.0625 C-4.37210938 2.05347656 -3.36921875 2.04445313 -2.3359375 2.03515625 C-1.17964844 2.01775391 -1.17964844 2.01775391 0 2 C0 1.34 0 0.68 0 0 Z " fill="#1D4219" transform="translate(36,19)"/>
<path d="M0 0 C1.32 0 2.64 0 4 0 C4 0.66 4 1.32 4 2 C4.99 2 5.98 2 7 2 C7.66 3.98 8.32 5.96 9 8 C-5.19 8 -19.38 8 -34 8 C-33.67 7.34 -33.34 6.68 -33 6 C-18.15 5.505 -18.15 5.505 -3 5 C-3.33 4.01 -3.66 3.02 -4 2 C-2.68 2 -1.36 2 0 2 C0 1.34 0 0.68 0 0 Z " fill="#081901" transform="translate(72,48)"/>
<path d="M0 0 C3.63 0 7.26 0 11 0 C11 4.29 11 8.58 11 13 C4.06640625 13.09765625 4.06640625 13.09765625 2 13 C0.18884044 11.18884044 0.61800552 8.38721773 0.4375 5.9375 C0.35371094 4.83277344 0.26992187 3.72804687 0.18359375 2.58984375 C0.09271484 1.30787109 0.09271484 1.30787109 0 0 Z " fill="#AC9E41" transform="translate(88,44)"/>
<path d="M0 0 C0.66 0 1.32 0 2 0 C2 1.32 2 2.64 2 4 C2.66 4 3.32 4 4 4 C4.33 2.68 4.66 1.36 5 0 C7.97 0.495 7.97 0.495 11 1 C11 1.66 11 2.32 11 3 C10.01 3.495 10.01 3.495 9 4 C8.30772968 6.80980673 8.30772968 6.80980673 7.875 10.0625 C7.70742187 11.16722656 7.53984375 12.27195312 7.3671875 13.41015625 C7.24601563 14.26480469 7.12484375 15.11945312 7 16 C5.68 16 4.36 16 3 16 C3 16.66 3 17.32 3 18 C2.01 18 1.02 18 0 18 C0 12.06 0 6.12 0 0 Z " fill="#0D4A3A" transform="translate(0,32)"/>
<path d="M0 0 C2.25 1.4375 2.25 1.4375 4 3 C4 3.66 4 4.32 4 5 C3.01 5 2.02 5 1 5 C1.33 7.31 1.66 9.62 2 12 C0.02 12 -1.96 12 -4 12 C-4 11.01 -4 10.02 -4 9 C-4.66 8.67 -5.32 8.34 -6 8 C-5.01 8 -4.02 8 -3 8 C-3.66 6.68 -4.32 5.36 -5 4 C-5.99 4 -6.98 4 -8 4 C-8 4.66 -8 5.32 -8 6 C-10.97 6 -13.94 6 -17 6 C-16.67 5.01 -16.34 4.02 -16 3 C-14.35 3 -12.7 3 -11 3 C-11 2.34 -11 1.68 -11 1 C-3.34901625 -1.50128315 -3.34901625 -1.50128315 0 0 Z " fill="#EDDA93" transform="translate(72,24)"/>
<path d="M0 0 C0.99 0 1.98 0 3 0 C3 0.66 3 1.32 3 2 C6.96 2 10.92 2 15 2 C15.66 3.98 16.32 5.96 17 8 C11.06 8 5.12 8 -1 8 C-0.67 5.36 -0.34 2.72 0 0 Z " fill="#091902" transform="translate(20,48)"/>
<path d="M0 0 C-5.75 5 -5.75 5 -8 5 C-8 5.66 -8 6.32 -8 7 C-13.5522888 9.8352113 -17.80112515 10.37952295 -24 10 C-23.67 9.34 -23.34 8.68 -23 8 C-19.9375 7.375 -19.9375 7.375 -17 7 C-17 6.01 -17 5.02 -17 4 C-14.73291675 3.1344953 -12.46224921 2.28240685 -10.1875 1.4375 C-9.54490234 1.19064453 -8.90230469 0.94378906 -8.24023438 0.68945312 C-3.33984375 -1.11328125 -3.33984375 -1.11328125 0 0 Z " fill="#C3B619" transform="translate(83,14)"/>
<path d="M0 0 C4.62 0 9.24 0 14 0 C14 0.66 14 1.32 14 2 C20.43013467 3.73955334 26.34949576 4.24991456 33 4 C33 4.66 33 5.32 33 6 C29.00204108 6.95619733 25.29196078 7.1039592 21.1875 7.0625 C20.02605469 7.05347656 18.86460938 7.04445313 17.66796875 7.03515625 C16.78753906 7.02355469 15.90710937 7.01195312 15 7 C15 6.34 15 5.68 15 5 C14.01 5 13.02 5 12 5 C11.67 7.64 11.34 10.28 11 13 C10.67 13 10.34 13 10 13 C9.97287934 11.56260487 9.95354933 10.12506137 9.9375 8.6875 C9.92589844 7.88699219 9.91429687 7.08648437 9.90234375 6.26171875 C10 4 10 4 11 1 C7.37 1 3.74 1 0 1 C0 0.67 0 0.34 0 0 Z " fill="#364716" transform="translate(8,43)"/>
<path d="M0 0 C1.42119141 -0.00386719 1.42119141 -0.00386719 2.87109375 -0.0078125 C5.26390459 0.11026525 7.27586153 0.44387365 9.5625 1.125 C9.5625 2.115 9.5625 3.105 9.5625 4.125 C5.2725 4.125 0.9825 4.125 -3.4375 4.125 C-3.7675 4.785 -4.0975 5.445 -4.4375 6.125 C-4.4375 5.465 -4.4375 4.805 -4.4375 4.125 C-9.7175 4.125 -14.9975 4.125 -20.4375 4.125 C-20.4375 3.465 -20.4375 2.805 -20.4375 2.125 C-19.60605469 2.06441406 -18.77460937 2.00382812 -17.91796875 1.94140625 C-16.28794922 1.81572266 -16.28794922 1.81572266 -14.625 1.6875 C-13.54605469 1.60628906 -12.46710937 1.52507813 -11.35546875 1.44140625 C-7.38624979 1.01100901 -4.05587101 -0.01100643 0 0 Z " fill="#081A00" transform="translate(69.4375,41.875)"/>
<path d="M0 0 C0 0.66 0 1.32 0 2 C-2.72842061 3.36421031 -4.60953318 2.87807211 -7.625 2.5625 C-8.62789062 2.46066406 -9.63078125 2.35882812 -10.6640625 2.25390625 C-11.43492188 2.17011719 -12.20578125 2.08632813 -13 2 C-13.68707555 4.49064888 -14 6.37886292 -14 9 C-17.37097383 10.49821059 -19.20442119 11 -23 11 C-23 11.99 -23 12.98 -23 14 C-24.32 13.34 -25.64 12.68 -27 12 C-15.13620802 -0.68660336 -15.13620802 -0.68660336 -7.3125 -1.3125 C-4.41841232 -1.30100031 -2.5830041 -1.29150205 0 0 Z " fill="#DBD78D" transform="translate(39,23)"/>
<path d="M0 0 C4.39683488 1.19913678 7.09840934 2.4288115 10 6 C10 6.66 10 7.32 10 8 C7.35541621 9.32229189 5.32238699 9.09677194 2.375 9.0625 C1.37210938 9.05347656 0.36921875 9.04445313 -0.6640625 9.03515625 C-1.43492188 9.02355469 -2.20578125 9.01195312 -3 9 C-3 8.34 -3 7.68 -3 7 C-4.98 6.34 -6.96 5.68 -9 5 C-5.94736336 4.01879536 -4.05263664 4.01879536 -1 5 C-1 5.66 -1 6.32 -1 7 C0.32 7 1.64 7 3 7 C3.33 6.34 3.66 5.68 4 5 C3.01 5 2.02 5 1 5 C1 4.34 1 3.68 1 3 C0.01 2.67 -0.98 2.34 -2 2 C-1.34 1.34 -0.68 0.68 0 0 Z " fill="#E5DC88" transform="translate(89,33)"/>
<path d="M0 0 C9.12 -0.304 9.12 -0.304 12 2 C12.59765625 4.078125 12.59765625 4.078125 13 6 C12.42556152 6.08564209 11.85112305 6.17128418 11.25927734 6.25952148 C8.63110617 6.65165543 6.00305248 7.04457143 3.375 7.4375 C2.01955078 7.63956055 2.01955078 7.63956055 0.63671875 7.84570312 C-3.91563297 8.52689444 -8.46264699 9.22367548 -13 10 C-12.67 9.34 -12.34 8.68 -12 8 C-9.1640625 7.1484375 -9.1640625 7.1484375 -5.625 6.375 C-4.46226563 6.11460938 -3.29953125 5.85421875 -2.1015625 5.5859375 C1 5 1 5 4 5 C4 4.01 4 3.02 4 2 C2.68 1.34 1.36 0.68 0 0 Z " fill="#DCC367" transform="translate(39,21)"/>
<path d="M0 0 C4.62 0.66 9.24 1.32 14 2 C14.33 2.99 14.66 3.98 15 5 C15.66 5 16.32 5 17 5 C17 6.32 17 7.64 17 9 C18.65 9 20.3 9 22 9 C23.06775224 10.96466413 24.06553465 12.96855359 25 15 C24.67 15.66 24.34 16.32 24 17 C23.59273682 16.57589844 23.18547363 16.15179688 22.76586914 15.71484375 C20.88762667 13.78599551 18.97622684 11.89362082 17.0625 10 C16.42248047 9.33226562 15.78246094 8.66453125 15.12304688 7.9765625 C11.50070721 4.44433079 9.18511015 2.5625 3.99609375 2.5625 C2.66067658 2.67311459 1.3259288 2.80638328 0 3 C0 2.01 0 1.02 0 0 Z " fill="#2A4E21" transform="translate(73,21)"/>
<path d="M0 0 C1.98 0 3.96 0 6 0 C5.01 1.485 5.01 1.485 4 3 C4.66 3.66 5.32 4.32 6 5 C5.63318342 7.93453261 5.13562754 8.86437246 3 11 C0.8359375 11.1953125 0.8359375 11.1953125 -1.625 11.125 C-2.44226563 11.10695313 -3.25953125 11.08890625 -4.1015625 11.0703125 C-4.72804688 11.04710937 -5.35453125 11.02390625 -6 11 C-6 10.01 -6 9.02 -6 8 C-4.46875 6.61328125 -4.46875 6.61328125 -2.5 5.3125 C-1.8503125 4.87550781 -1.200625 4.43851563 -0.53125 3.98828125 C-0.0259375 3.66214844 0.479375 3.33601562 1 3 C0.67 2.01 0.34 1.02 0 0 Z " fill="#053B24" transform="translate(81,11)"/>
<path d="M0 0 C0.33 0 0.66 0 1 0 C1 5.94 1 11.88 1 18 C4.63 17.67 8.26 17.34 12 17 C11.67 18.32 11.34 19.64 11 21 C8.36 20.67 5.72 20.34 3 20 C3 21.65 3 23.3 3 25 C2.34 25 1.68 25 1 25 C1 23.35 1 21.7 1 20 C0.34 20 -0.32 20 -1 20 C-2.60386138 16.97048406 -3.17745612 15.60062072 -2.1875 12.25 C-1.795625 11.1775 -1.40375 10.105 -1 9 C-0.54413866 6.00994177 -0.25445932 3.01333411 0 0 Z " fill="#3B5843" transform="translate(7,39)"/>
<path d="M0 0 C-4.455 0.495 -4.455 0.495 -9 1 C-8.67 1.99 -8.34 2.98 -8 4 C-5.03 4 -2.06 4 1 4 C-1 6 -1 6 -3.6015625 6.1953125 C-4.59929688 6.17210937 -5.59703125 6.14890625 -6.625 6.125 C-8.12933594 6.09792969 -8.12933594 6.09792969 -9.6640625 6.0703125 C-10.43492188 6.04710937 -11.20578125 6.02390625 -12 6 C-12 6.66 -12 7.32 -12 8 C-14.90600261 9.25664978 -16.79604584 10 -20 10 C-20.33 9.01 -20.66 8.02 -21 7 C-18.03 6.01 -15.06 5.02 -12 4 C-12.33 3.34 -12.66 2.68 -13 2 C-12 0 -12 0 -10.29296875 -0.703125 C-9.59816406 -0.88359375 -8.90335938 -1.0640625 -8.1875 -1.25 C-7.50042969 -1.44078125 -6.81335937 -1.6315625 -6.10546875 -1.828125 C-4 -2 -4 -2 0 0 Z " fill="#EAD77E" transform="translate(41,30)"/>
<path d="M0 0 C4.39585291 0.58312335 7.30486087 2.09385669 11.0625 4.40625 C11.0625 5.06625 11.0625 5.72625 11.0625 6.40625 C7.34650809 6.60711443 6.29041555 6.5581937 3.0625 4.40625 C0.29594676 4.26379103 -2.36403306 4.21855555 -5.125 4.28125 C-6.24938477 4.29478516 -6.24938477 4.29478516 -7.39648438 4.30859375 C-9.24362654 4.33212422 -11.09060412 4.36799439 -12.9375 4.40625 C-8.95161899 -0.37680721 -5.9412703 -0.17474324 0 0 Z " fill="#967408" transform="translate(74.9375,35.59375)"/>
<path d="M0 0 C2.64 0 5.28 0 8 0 C8 4.29 8 8.58 8 13 C3.03083364 12.48594831 -1.29026351 11.76615118 -6 10 C-2.42355152 8.7619986 0.33694766 9.25073929 4 10 C4 9.01 4 8.02 4 7 C4.66 7 5.32 7 6 7 C5.67 5.02 5.34 3.04 5 1 C3.35 1 1.7 1 0 1 C0 0.67 0 0.34 0 0 Z " fill="#EED681" transform="translate(46,27)"/>
<path d="M0 0 C6.27 0 12.54 0 19 0 C19 0.99 19 1.98 19 3 C12.73 3 6.46 3 0 3 C0 2.01 0 1.02 0 0 Z " fill="#464918" transform="translate(38,51)"/>
<path d="M0 0 C4.29 0.33 8.58 0.66 13 1 C12.67 2.32 12.34 3.64 12 5 C12 4.34 12 3.68 12 3 C11.34 3 10.68 3 10 3 C9.67 4.32 9.34 5.64 9 7 C9 6.34 9 5.68 9 5 C7.55367187 5.14308594 7.55367187 5.14308594 6.078125 5.2890625 C4.81484375 5.39992188 3.5515625 5.51078125 2.25 5.625 C0.37054688 5.79902344 0.37054688 5.79902344 -1.546875 5.9765625 C-4.83586903 5.99888599 -6.31020776 5.77961002 -9 4 C-7.68 4 -6.36 4 -5 4 C-4.67 3.34 -4.34 2.68 -4 2 C-4 2.66 -4 3.32 -4 4 C-1.36 4 1.28 4 4 4 C4 3.01 4 2.02 4 1 C2.68 0.67 1.36 0.34 0 0 Z " fill="#191900" transform="translate(75,42)"/>
<path d="M0 0 C3.44025166 0.07519676 6.07651279 0.69450639 9.1875 2.25 C9.1875 3.24 9.1875 4.23 9.1875 5.25 C3.2475 5.25 -2.6925 5.25 -8.8125 5.25 C-3.8125 0.25 -3.8125 0.25 0 0 Z " fill="#88590A" transform="translate(35.8125,35.75)"/>
<path d="M0 0 C2.64 0 5.28 0 8 0 C8 2.31 8 4.62 8 7 C5.36 7 2.72 7 0 7 C0 4.69 0 2.38 0 0 Z " fill="#A0790C" transform="translate(9,49)"/>
<path d="M0 0 C2.5625718 -0.02710123 5.12485365 -0.04688771 7.6875 -0.0625 C8.40873047 -0.07087891 9.12996094 -0.07925781 9.87304688 -0.08789062 C13.71555382 -0.10543632 17.26639526 0.06475779 21 1 C21 1.33 21 1.66 21 2 C8.97960136 2.94014291 -2.94723146 3.11114233 -15 3 C-15 2.67 -15 2.34 -15 2 C-10.05 2 -5.1 2 0 2 C0 1.34 0 0.68 0 0 Z " fill="#8D7517" transform="translate(59,40)"/>
<path d="M0 0 C2.31 0.33 4.62 0.66 7 1 C7 3.31 7 5.62 7 8 C4.69 8 2.38 8 0 8 C0 5.36 0 2.72 0 0 Z " fill="#94740C" transform="translate(90,48)"/>
<path d="M0 0 C1.49080078 0.43119141 1.49080078 0.43119141 3.01171875 0.87109375 C4.15060547 1.21333984 4.15060547 1.21333984 5.3125 1.5625 C5.6425 2.8825 5.9725 4.2025 6.3125 5.5625 C2.5625 6.6875 2.5625 6.6875 0.3125 5.5625 C0.3125 4.5725 0.3125 3.5825 0.3125 2.5625 C-0.615625 2.624375 -1.54375 2.68625 -2.5 2.75 C-5.6875 2.5625 -5.6875 2.5625 -7.5625 1.0625 C-7.93375 0.5675 -8.305 0.0725 -8.6875 -0.4375 C-5.05554504 -1.64815165 -3.62218371 -1.06534815 0 0 Z " fill="#ECDD99" transform="translate(81.6875,29.4375)"/>
<path d="M0 0 C8.57142857 -0.14285714 8.57142857 -0.14285714 12 1 C12 1.99 12 2.98 12 4 C6.65998179 5.33500455 3.16044765 4.512545 -2 3 C-1.34 2.67 -0.68 2.34 0 2 C0 1.34 0 0.68 0 0 Z " fill="#091B01" transform="translate(22,43)"/>
<path d="M0 0 C0.66 0.33 1.32 0.66 2 1 C1.67 4.96 1.34 8.92 1 13 C3.64 12.34 6.28 11.68 9 11 C8.67 11.66 8.34 12.32 8 13 C7.01 13 6.02 13 5 13 C5 13.66 5 14.32 5 15 C1.7 15 -1.6 15 -5 15 C-5.33 14.01 -5.66 13.02 -6 12 C-3.03 12.495 -3.03 12.495 0 13 C0 8.71 0 4.42 0 0 Z " fill="#D3B145" transform="translate(54,27)"/>
<path d="M0 0 C3.125 -0.1875 3.125 -0.1875 6 0 C5.01 0.495 5.01 0.495 4 1 C4 1.99 4 2.98 4 4 C-3.425 5.485 -3.425 5.485 -11 7 C-11.33 6.01 -11.66 5.02 -12 4 C-10.95199219 3.94392578 -10.95199219 3.94392578 -9.8828125 3.88671875 C-8.97273438 3.82097656 -8.06265625 3.75523438 -7.125 3.6875 C-6.22007813 3.62949219 -5.31515625 3.57148438 -4.3828125 3.51171875 C-1.63778399 3.2117961 -1.63778399 3.2117961 0 0 Z " fill="#F9DA7E" transform="translate(39,22)"/>
<path d="M0 0 C6.6 0 13.2 0 20 0 C20 0.66 20 1.32 20 2 C13.25 2.125 13.25 2.125 11 1 C10.67 1.66 10.34 2.32 10 3 C10 2.34 10 1.68 10 1 C9.34 1 8.68 1 8 1 C8 1.66 8 2.32 8 3 C2.25 3.125 2.25 3.125 0 2 C0 1.34 0 0.68 0 0 Z " fill="#48501D" transform="translate(64,47)"/>
<path d="M0 0 C0.33 0.99 0.66 1.98 1 3 C-2 4 -2 4 -5.125 3.5 C-9.61307186 2.92089395 -13.55148823 3.34432366 -18 4 C-18 3.01 -18 2.02 -18 1 C-12.06 0.67 -6.12 0.34 0 0 Z " fill="#4E501D" transform="translate(62,46)"/>
<path d="M0 0 C2 2 2 2 2 5 C-2.62 5 -7.24 5 -12 5 C-12 4.34 -12 3.68 -12 3 C-9.03 3 -6.06 3 -3 3 C-3 2.34 -3 1.68 -3 1 C-2.01 0.67 -1.02 0.34 0 0 Z " fill="#F3D9A1" transform="translate(67,27)"/>
<path d="M0 0 C4.62 0 9.24 0 14 0 C14 1.65 14 3.3 14 5 C13.34 5 12.68 5 12 5 C11.67 7.64 11.34 10.28 11 13 C10.67 13 10.34 13 10 13 C9.97287934 11.56260487 9.95354933 10.12506137 9.9375 8.6875 C9.92589844 7.88699219 9.91429687 7.08648437 9.90234375 6.26171875 C10 4 10 4 11 1 C7.37 1 3.74 1 0 1 C0 0.67 0 0.34 0 0 Z " fill="#3C2E01" transform="translate(8,43)"/>
<path d="M0 0 C2.31 0 4.62 0 7 0 C7.33 0.99 7.66 1.98 8 3 C13.445 2.505 13.445 2.505 19 2 C19 2.66 19 3.32 19 4 C16.35541621 5.32229189 14.32238699 5.09677194 11.375 5.0625 C10.37210938 5.05347656 9.36921875 5.04445313 8.3359375 5.03515625 C7.56507812 5.02355469 6.79421875 5.01195312 6 5 C6 4.34 6 3.68 6 3 C4.02 2.34 2.04 1.68 0 1 C0 0.67 0 0.34 0 0 Z " fill="#DFC85E" transform="translate(80,37)"/>
<path d="M0 0 C0 0.66 0 1.32 0 2 C-2.69142979 3.3457149 -4.46091941 2.88268994 -7.4375 2.5625 C-10.32631923 2.25861622 -13.09347719 2 -16 2 C-13.34549733 -0.65450267 -11.69774614 -0.41639121 -8 -0.6875 C-6.9275 -0.77386719 -5.855 -0.86023438 -4.75 -0.94921875 C-2 -1 -2 -1 0 0 Z " fill="#B4B86F" transform="translate(39,23)"/>
<path d="M0 0 C8.57142857 -0.28571429 8.57142857 -0.28571429 12 2 C12 2.99 12 3.98 12 5 C9.36 5 6.72 5 4 5 C4 4.01 4 3.02 4 2 C2.68 1.34 1.36 0.68 0 0 Z " fill="#D2C46F" transform="translate(39,21)"/>
<path d="M0 0 C0.99 0 1.98 0 3 0 C4.1577506 3.47325181 4.06866652 6.36067448 4 10 C3.01 10.495 3.01 10.495 2 11 C-0.67927341 6.98108988 -0.15601248 4.75838077 0 0 Z " fill="#1D5951" transform="translate(101,46)"/>
<path d="M0 0 C0.33 0.66 0.66 1.32 1 2 C0.67 2.66 0.34 3.32 0 4 C-2.64 3.67 -5.28 3.34 -8 3 C-8 4.65 -8 6.3 -8 8 C-8.66 8 -9.32 8 -10 8 C-10 5.69 -10 3.38 -10 1 C-6.7 0.67 -3.4 0.34 0 0 Z " fill="#3A643C" transform="translate(18,56)"/>
<path d="M0 0 C0.66 0.33 1.32 0.66 2 1 C2 4.96 2 8.92 2 13 C1.67 12.01 1.34 11.02 1 10 C0.01 9.67 -0.98 9.34 -2 9 C-1.125 1.125 -1.125 1.125 0 0 Z " fill="#0F5145" transform="translate(103,36)"/>
<path d="M0 0 C1.32 0.33 2.64 0.66 4 1 C4 1.99 4 2.98 4 4 C3.34 4 2.68 4 2 4 C2 4.99 2 5.98 2 7 C-1.3 6.67 -4.6 6.34 -8 6 C-5.4345406 3.4345406 -3.52313332 3.45953913 0 3 C0 2.01 0 1.02 0 0 Z " fill="#EFE08F" transform="translate(48,30)"/>
<path d="M0 0 C3.63 0 7.26 0 11 0 C11 0.99 11 1.98 11 3 C7.37 3 3.74 3 0 3 C0 2.01 0 1.02 0 0 Z " fill="#B5A013" transform="translate(8,44)"/>
<path d="M0 0 C0 0.66 0 1.32 0 2 C-1.65 2 -3.3 2 -5 2 C-5 2.66 -5 3.32 -5 4 C-3.35 4 -1.7 4 0 4 C0 4.66 0 5.32 0 6 C-0.99 6 -1.98 6 -3 6 C-3 6.66 -3 7.32 -3 8 C-3.99 8 -4.98 8 -6 8 C-6 5.36 -6 2.72 -6 0 C-2.25 -1.125 -2.25 -1.125 0 0 Z " fill="#1A524A" transform="translate(6,42)"/>
<path d="M0 0 C3.63 0 7.26 0 11 0 C10.67 1.32 10.34 2.64 10 4 C7.6875 4.625 7.6875 4.625 5 5 C2 3 2 3 0 0 Z " fill="#DDD283" transform="translate(71,23)"/>
<path d="M0 0 C0.99 0.33 1.98 0.66 3 1 C1.38050958 2.50594681 -0.24575974 4.00460668 -1.875 5.5 C-3.23238281 6.75296875 -3.23238281 6.75296875 -4.6171875 8.03125 C-7 10 -7 10 -9 10 C-8.67 9.01 -8.34 8.02 -8 7 C-7.34 7 -6.68 7 -6 7 C-5.67 5.68 -5.34 4.36 -5 3 C-3.68 3 -2.36 3 -1 3 C-0.67 2.01 -0.34 1.02 0 0 Z " fill="#2E511E" transform="translate(17,28)"/>
<path d="M0 0 C3.3 0 6.6 0 10 0 C10 0.99 10 1.98 10 3 C7.03 3 4.06 3 1 3 C0.67 2.01 0.34 1.02 0 0 Z " fill="#BB9D13" transform="translate(88,44)"/>
<path d="M0 0 C1.62463842 -0.05395478 3.24978541 -0.09277195 4.875 -0.125 C5.77992187 -0.14820313 6.68484375 -0.17140625 7.6171875 -0.1953125 C10 0 10 0 12 2 C11 3 11 3 9.00390625 3.1328125 C8.19824219 3.13023438 7.39257812 3.12765625 6.5625 3.125 C5.75941406 3.12757812 4.95632812 3.13015625 4.12890625 3.1328125 C2 3 2 3 0 2 C0 1.34 0 0.68 0 0 Z " fill="#454D1C" transform="translate(58,51)"/>
<path d="M0 0 C3.3125 0.125 3.3125 0.125 7 1 C9 3.9375 9 3.9375 10 7 C9.67 7.66 9.34 8.32 9 9 C7.49704815 7.69088122 5.99770689 6.37761608 4.5 5.0625 C3.6646875 4.33160156 2.829375 3.60070313 1.96875 2.84765625 C1.3190625 2.23792969 0.669375 1.62820312 0 1 C0 0.67 0 0.34 0 0 Z " fill="#3B592F" transform="translate(88,29)"/>
<path d="M0 0 C1.98 0 3.96 0 6 0 C5.01 1.485 5.01 1.485 4 3 C4.33 3.66 4.66 4.32 5 5 C4.34 5 3.68 5 3 5 C2.67 5.66 2.34 6.32 2 7 C0.35 7 -1.3 7 -3 7 C-1.68 5.68 -0.36 4.36 1 3 C0.67 2.01 0.34 1.02 0 0 Z " fill="#385B37" transform="translate(81,11)"/>
<path d="M0 0 C5 2 5 2 10 4 C10 4.66 10 5.32 10 6 C6.28400809 6.20086443 5.22791555 6.1519437 2 4 C0.67432801 3.31822584 -0.65753688 2.64808564 -2 2 C-1.34 1.34 -0.68 0.68 0 0 Z " fill="#AC8E1F" transform="translate(76,36)"/>
<path d="M0 0 C-0.66 0 -1.32 0 -2 0 C-2 0.66 -2 1.32 -2 2 C-5.82989106 3.80230168 -8.78121808 4.19622241 -13 4 C-12.67 3.34 -12.34 2.68 -12 2 C-10.35 2 -8.7 2 -7 2 C-7 1.34 -7 0.68 -7 0 C-3.86650268 -1.04449911 -3.01031744 -0.93423645 0 0 Z " fill="#EFDD6E" transform="translate(68,25)"/>
<path d="M0 0 C0.99 0.99 1.98 1.98 3 3 C2.34 5.31 1.68 7.62 1 10 C0.67 10 0.34 10 0 10 C0 8.02 0 6.04 0 4 C-0.66 4 -1.32 4 -2 4 C-2.33 3.01 -2.66 2.02 -3 1 C-2.01 0.67 -1.02 0.34 0 0 Z " fill="#174427" transform="translate(100,34)"/>
<path d="M0 0 C0.33 0.66 0.66 1.32 1 2 C5.62 2 10.24 2 15 2 C14.67 2.99 14.34 3.98 14 5 C14 4.34 14 3.68 14 3 C12.55367187 3.14308594 12.55367187 3.14308594 11.078125 3.2890625 C9.81484375 3.39992187 8.5515625 3.51078125 7.25 3.625 C5.37054688 3.79902344 5.37054688 3.79902344 3.453125 3.9765625 C0.16413097 3.99888599 -1.31020776 3.77961002 -4 2 C-2.68 2 -1.36 2 0 2 C0 1.34 0 0.68 0 0 Z " fill="#1F2A04" transform="translate(70,44)"/>
<path d="M0 0 C-4.5 4 -4.5 4 -9 4 C-9 3.01 -9 2.02 -9 1 C-3.375 -1.125 -3.375 -1.125 0 0 Z " fill="#C5D568" transform="translate(83,14)"/>
<path d="M0 0 C0.33 0.66 0.66 1.32 1 2 C-2.3 2.66 -5.6 3.32 -9 4 C-9 3.01 -9 2.02 -9 1 C-5.92677456 0.08941469 -3.19902639 -0.08886184 0 0 Z " fill="#EDDFA1" transform="translate(29,33)"/>
<path d="M0 0 C1.32 0.66 2.64 1.32 4 2 C2.35 2.33 0.7 2.66 -1 3 C-1 3.99 -1 4.98 -1 6 C-2.32 5.34 -3.64 4.68 -5 4 C-3.35 2.68 -1.7 1.36 0 0 Z " fill="#D9D07F" transform="translate(17,31)"/>
<path d="M0 0 C0.99 0 1.98 0 3 0 C3 2.31 3 4.62 3 7 C2.01 7 1.02 7 0 7 C0 4.69 0 2.38 0 0 Z " fill="#966F09" transform="translate(14,49)"/>
<path d="M0 0 C0.33 0.66 0.66 1.32 1 2 C1.66 2 2.32 2 3 2 C3 2.66 3 3.32 3 4 C4.98 4 6.96 4 9 4 C9 4.33 9 4.66 9 5 C7.741875 5.020625 6.48375 5.04125 5.1875 5.0625 C4.47980469 5.07410156 3.77210937 5.08570313 3.04296875 5.09765625 C1 5 1 5 -2 4 C-1.34 2.68 -0.68 1.36 0 0 Z " fill="#E3D36C" transform="translate(11,36)"/>
<path d="M0 0 C2.31 1.65 4.62 3.3 7 5 C3 6 3 6 1 5 C1 4.34 1 3.68 1 3 C0.01 3 -0.98 3 -2 3 C-1 1 -1 1 0 0 Z " fill="#DDD58C" transform="translate(86,28)"/>
<path d="M0 0 C2.97 0.495 2.97 0.495 6 1 C5.67 1.99 5.34 2.98 5 4 C3.35 3.67 1.7 3.34 0 3 C0 2.01 0 1.02 0 0 Z " fill="#C9A91D" transform="translate(51,23)"/>
<path d="M0 0 C0 2.31 0 4.62 0 7 C-0.99 7 -1.98 7 -3 7 C-3 5.02 -3 3.04 -3 1 C-1 0 -1 0 0 0 Z " fill="#85670A" transform="translate(97,49)"/>
<path d="M0 0 C1.32 0.66 2.64 1.32 4 2 C4 2.66 4 3.32 4 4 C1.03 4 -1.94 4 -5 4 C-3.35 2.68 -1.7 1.36 0 0 Z " fill="#AC851A" transform="translate(45,38)"/>
<path d="M0 0 C2.25 0.25 2.25 0.25 4 1 C4 1.66 4 2.32 4 3 C1.36 3.33 -1.28 3.66 -4 4 C-2.25 1.9375 -2.25 1.9375 0 0 Z " fill="#B08923" transform="translate(66,36)"/>
<path d="M0 0 C0.66 0 1.32 0 2 0 C2.33 1.32 2.66 2.64 3 4 C1.125 4.625 1.125 4.625 -1 5 C-1.66 4.34 -2.32 3.68 -3 3 C-2.34 3 -1.68 3 -1 3 C-0.67 2.01 -0.34 1.02 0 0 Z " fill="#EFDEAC" transform="translate(85,31)"/>
<path d="M0 0 C1.32 0 2.64 0 4 0 C4.33 1.65 4.66 3.3 5 5 C3.02 4.34 1.04 3.68 -1 3 C-0.67 2.01 -0.34 1.02 0 0 Z " fill="#00433B" transform="translate(91,24)"/>
<path d="M0 0 C1.98 0 3.96 0 6 0 C5.01 0.495 5.01 0.495 4 1 C4 1.99 4 2.98 4 4 C2.68 3.67 1.36 3.34 0 3 C0 2.01 0 1.02 0 0 Z " fill="#F0E299" transform="translate(39,22)"/>
<path d="M0 0 C1.98 0 3.96 0 6 0 C5.67 0.99 5.34 1.98 5 3 C3.35 3 1.7 3 0 3 C0 2.01 0 1.02 0 0 Z " fill="#4B5128" transform="translate(38,51)"/>
<path d="M0 0 C2.31 0.33 4.62 0.66 7 1 C7 1.66 7 2.32 7 3 C4.69 3 2.38 3 0 3 C0 2.01 0 1.02 0 0 Z " fill="#3E4E17" transform="translate(73,21)"/>
<path d="M0 0 C2.125 0.375 2.125 0.375 4 1 C4 1.66 4 2.32 4 3 C1.69 3.33 -0.62 3.66 -3 4 C-2 2 -2 2 0 0 Z " fill="#DFD522" transform="translate(70,18)"/>
</svg>
